<svg width="12" height="12" viewBox="0 0 12 12" fill="none" xmlns="http://www.w3.org/2000/svg">
<path d="M11.1823 8.00492C11.2165 7.92908 11.2003 7.83995 11.1414 7.78111C11.0825 7.72228 10.9934 7.70603 10.9176 7.74033C9.98582 8.16178 8.94775 8.28931 7.94169 8.10592C6.93562 7.92252 6.00932 7.43691 5.2862 6.7138C4.56309 5.99068 4.07748 5.06438 3.89409 4.05831C3.71069 3.05225 3.83822 2.01419 4.25967 1.08242C4.29397 1.0066 4.27772 0.917458 4.21889 0.858602C4.16005 0.799746 4.07092 0.783475 3.99508 0.817747C3.19432 1.17963 2.49331 1.73036 1.95218 2.42271C1.41105 3.11506 1.04595 3.92836 0.888226 4.79282C0.730496 5.65728 0.784837 6.5471 1.04659 7.38594C1.30834 8.22479 1.76968 8.98761 2.39104 9.60896C3.01239 10.2303 3.77522 10.6917 4.61406 10.9534C5.4529 11.2152 6.34272 11.2695 7.20718 11.1118C8.07164 10.954 8.88494 10.589 9.57729 10.0478C10.2696 9.50669 10.8204 8.80568 11.1823 8.00492Z" fill="black" stroke="black" stroke-width="0.4" stroke-linejoin="round"/>
</svg>
