<svg width="16" height="16" viewBox="0 0 16 16" fill="none" xmlns="http://www.w3.org/2000/svg">
<path fill-rule="evenodd" clip-rule="evenodd" d="M8 2C8.19891 2 8.38968 2.07902 8.53033 2.21967C8.67098 2.36032 8.75 2.55109 8.75 2.75V3.5C8.75 3.69891 8.67098 3.88968 8.53033 4.03033C8.38968 4.17098 8.19891 4.25 8 4.25C7.80109 4.25 7.61032 4.17098 7.46967 4.03033C7.32902 3.88968 7.25 3.69891 7.25 3.5V2.75C7.25 2.55109 7.32902 2.36032 7.46967 2.21967C7.61032 2.07902 7.80109 2 8 2ZM11 8C11 8.79565 10.6839 9.55871 10.1213 10.1213C9.55871 10.6839 8.79565 11 8 11C7.20435 11 6.44129 10.6839 5.87868 10.1213C5.31607 9.55871 5 8.79565 5 8C5 7.20435 5.31607 6.44129 5.87868 5.87868C6.44129 5.31607 7.20435 5 8 5C8.79565 5 9.55871 5.31607 10.1213 5.87868C10.6839 6.44129 11 7.20435 11 8ZM10.652 11.7125L11.1823 12.2427C11.3237 12.3794 11.5132 12.455 11.7098 12.4533C11.9064 12.4515 12.0946 12.3727 12.2336 12.2336C12.3727 12.0946 12.4515 11.9064 12.4533 11.7098C12.455 11.5132 12.3794 11.3237 12.2427 11.1823L11.7125 10.652C11.571 10.5154 11.3816 10.4398 11.1849 10.4415C10.9883 10.4432 10.8002 10.5221 10.6611 10.6611C10.5221 10.8002 10.4432 10.9883 10.4415 11.1849C10.4398 11.3816 10.5154 11.571 10.652 11.7125ZM12.242 3.75725C12.3826 3.8979 12.4616 4.08863 12.4616 4.2875C12.4616 4.48637 12.3826 4.6771 12.242 4.81775L11.7125 5.348C11.6433 5.41963 11.5606 5.47677 11.4691 5.51608C11.3776 5.55538 11.2791 5.57607 11.1796 5.57694C11.08 5.5778 10.9812 5.55883 10.889 5.52112C10.7969 5.48341 10.7131 5.42772 10.6427 5.3573C10.5723 5.28688 10.5166 5.20314 10.4789 5.11097C10.4412 5.01879 10.4222 4.92003 10.4231 4.82045C10.4239 4.72086 10.4446 4.62245 10.4839 4.53095C10.5232 4.43944 10.5804 4.35669 10.652 4.2875L11.1823 3.75725C11.3229 3.61665 11.5136 3.53766 11.7125 3.53766C11.9114 3.53766 12.1014 3.61665 12.242 3.75725ZM13.25 8.75C13.4489 8.75 13.6397 8.67098 13.7803 8.53033C13.921 8.38968 14 8.19891 14 8C14 7.80109 13.921 7.61032 13.7803 7.46967C13.6397 7.32902 13.4489 7.25 13.25 7.25H12.5C12.3011 7.25 12.1103 7.32902 11.9697 7.46967C11.829 7.61032 11.75 7.80109 11.75 8C11.75 8.19891 11.829 8.38968 11.9697 8.53033C12.1103 8.67098 12.3011 8.75 12.5 8.75H13.25ZM8 11.75C8.19891 11.75 8.38968 11.829 8.53033 11.9697C8.67098 12.1103 8.75 12.3011 8.75 12.5V13.25C8.75 13.4489 8.67098 13.6397 8.53033 13.7803C8.38968 13.921 8.19891 14 8 14C7.80109 14 7.61032 13.921 7.46967 13.7803C7.32902 13.6397 7.25 13.4489 7.25 13.25V12.5C7.25 12.3011 7.32902 12.1103 7.46967 11.9697C7.61032 11.829 7.80109 11.75 8 11.75ZM4.2875 5.348C4.35713 5.41768 4.43981 5.47297 4.53081 5.5107C4.62181 5.54843 4.71935 5.56787 4.81786 5.5679C4.91637 5.56794 5.01392 5.54857 5.10495 5.5109C5.19598 5.47323 5.27869 5.41801 5.34837 5.34837C5.41806 5.27874 5.47334 5.19607 5.51107 5.10507C5.5488 5.01407 5.56824 4.91653 5.56828 4.81802C5.56831 4.7195 5.54894 4.62195 5.51128 4.53092C5.47361 4.4399 5.41838 4.35718 5.34875 4.2875L4.81775 3.75725C4.6763 3.62063 4.48685 3.54504 4.2902 3.54674C4.09355 3.54845 3.90544 3.62733 3.76639 3.76639C3.62733 3.90544 3.54845 4.09355 3.54674 4.2902C3.54504 4.48685 3.62063 4.6763 3.75725 4.81775L4.2875 5.348ZM5.348 11.7125L4.81775 12.2427C4.6763 12.3794 4.48685 12.455 4.2902 12.4533C4.09355 12.4515 3.90544 12.3727 3.76639 12.2336C3.62733 12.0946 3.54845 11.9064 3.54674 11.7098C3.54504 11.5132 3.62063 11.3237 3.75725 11.1823L4.2875 10.652C4.42895 10.5154 4.6184 10.4398 4.81505 10.4415C5.0117 10.4432 5.19981 10.5221 5.33886 10.6611C5.47792 10.8002 5.5568 10.9883 5.55851 11.1849C5.56021 11.3816 5.48462 11.571 5.348 11.7125ZM3.5 8.75C3.69891 8.75 3.88968 8.67098 4.03033 8.53033C4.17098 8.38968 4.25 8.19891 4.25 8C4.25 7.80109 4.17098 7.61032 4.03033 7.46967C3.88968 7.32902 3.69891 7.25 3.5 7.25H2.75C2.55109 7.25 2.36032 7.32902 2.21967 7.46967C2.07902 7.61032 2 7.80109 2 8C2 8.19891 2.07902 8.38968 2.21967 8.53033C2.36032 8.67098 2.55109 8.75 2.75 8.75H3.5Z" fill="white"/>
</svg>
