<?xml version="1.0" encoding="UTF-8"?>
<svg id="_Слой_1" data-name=" Слой 1" xmlns="http://www.w3.org/2000/svg" viewBox="0 0 66.67 69">
  <defs>
    <style>
      .cls-1 {
        fill: #fff;
        stroke-width: 0px;
      }
    </style>
  </defs>
  <path class="cls-1" d="M21.28,22l5.97,14.94s.03.09.05.14c.14.5.79,3.39-1.02,7.92-1.81,4.53-7.26,19.28-8.67,23.1-.2.54-.72.9-1.29.9H1.28s-2,0-1-2c4-10,5-13,5-13l11.98-30.95s.02-.06.03-.09c.17-.57,2.08-6.69,3.99-.96Z"/>
  <path class="cls-1" d="M24.78,3l23.79,63.44c.25.68.64,1.3,1.19,1.77.49.42,1.16.79,2.02.79h14s1.93,0,.1-3.79c-.07-.14-.13-.28-.18-.42l-7.92-21.79-10-27-4.62-12.93c-.59-1.64-2.04-2.87-3.77-3.04-.19-.02-.4-.03-.61-.03h-13s-2,0-1,3Z"/>
</svg>