<svg width="24" height="24" viewBox="0 0 24 24" fill="none" xmlns="http://www.w3.org/2000/svg">
<path d="M15.0003 19.128C15.8532 19.3757 16.7371 19.5009 17.6253 19.5C19.0537 19.5021 20.4635 19.1764 21.7463 18.548C21.7842 17.6517 21.5289 16.7675 21.0191 16.0293C20.5092 15.2912 19.7726 14.7394 18.921 14.4575C18.0693 14.1757 17.149 14.1791 16.2994 14.4674C15.4499 14.7557 14.7175 15.313 14.2133 16.055M15.0003 19.128V19.125C15.0003 18.012 14.7143 16.965 14.2133 16.055M15.0003 19.128V19.234C13.0757 20.3931 10.8709 21.0038 8.62427 21C6.29327 21 4.11227 20.355 2.25027 19.234L2.24927 19.125C2.2485 17.7095 2.71888 16.3339 3.58625 15.2153C4.45362 14.0966 5.66864 13.2984 7.03976 12.9466C8.41087 12.5948 9.86009 12.7093 11.1589 13.2721C12.4578 13.8349 13.5324 14.814 14.2133 16.055M12.0003 6.375C12.0003 7.27011 11.6447 8.12855 11.0118 8.76149C10.3788 9.39442 9.52037 9.75 8.62527 9.75C7.73016 9.75 6.87172 9.39442 6.23878 8.76149C5.60585 8.12855 5.25027 7.27011 5.25027 6.375C5.25027 5.47989 5.60585 4.62145 6.23878 3.98851C6.87172 3.35558 7.73016 3 8.62527 3C9.52037 3 10.3788 3.35558 11.0118 3.98851C11.6447 4.62145 12.0003 5.47989 12.0003 6.375ZM20.2503 8.625C20.2503 9.32119 19.9737 9.98887 19.4814 10.4812C18.9891 10.9734 18.3215 11.25 17.6253 11.25C16.9291 11.25 16.2614 10.9734 15.7691 10.4812C15.2768 9.98887 15.0003 9.32119 15.0003 8.625C15.0003 7.92881 15.2768 7.26113 15.7691 6.76884C16.2614 6.27656 16.9291 6 17.6253 6C18.3215 6 18.9891 6.27656 19.4814 6.76884C19.9737 7.26113 20.2503 7.92881 20.2503 8.625Z" stroke="#D660CC" stroke-width="1.5" stroke-linecap="round" stroke-linejoin="round"/>
</svg>
