<svg width="11" height="11" viewBox="0 0 11 11" fill="none" xmlns="http://www.w3.org/2000/svg">
<path fill-rule="evenodd" clip-rule="evenodd" d="M2.93352 1.00023C3.37577 0.964924 3.7956 0.790976 4.13323 0.503162C4.51456 0.178376 4.9991 0 5.5 0C6.0009 0 6.48544 0.178376 6.86677 0.503162C7.2044 0.790976 7.62424 0.964924 8.06648 1.00023C8.56591 1.04015 9.0348 1.25665 9.38907 1.61093C9.74335 1.9652 9.95985 2.43409 9.99977 2.93352C10.0348 3.37559 10.2088 3.79566 10.4968 4.13323C10.8216 4.51456 11 4.9991 11 5.5C11 6.0009 10.8216 6.48544 10.4968 6.86677C10.209 7.2044 10.0351 7.62424 9.99977 8.06648C9.95985 8.56591 9.74335 9.0348 9.38907 9.38907C9.0348 9.74335 8.56591 9.95985 8.06648 9.99977C7.62424 10.0351 7.2044 10.209 6.86677 10.4968C6.48544 10.8216 6.0009 11 5.5 11C4.9991 11 4.51456 10.8216 4.13323 10.4968C3.7956 10.209 3.37577 10.0351 2.93352 9.99977C2.43409 9.95985 1.9652 9.74335 1.61093 9.38907C1.25665 9.0348 1.04015 8.56591 1.00023 8.06648C0.964924 7.62424 0.790976 7.2044 0.503162 6.86677C0.178376 6.48544 0 6.0009 0 5.5C0 4.9991 0.178376 4.51456 0.503162 4.13323C0.790976 3.7956 0.964924 3.37577 1.00023 2.93352C1.04015 2.43409 1.25665 1.9652 1.61093 1.61093C1.9652 1.25665 2.43409 1.04015 2.93352 1.00023ZM8.04861 4.61105C8.17384 4.48138 8.24314 4.30771 8.24157 4.12745C8.24001 3.94719 8.1677 3.77475 8.04023 3.64728C7.91276 3.51981 7.74033 3.4475 7.56006 3.44594C7.3798 3.44437 7.20613 3.51367 7.07647 3.63891L4.81249 5.90288L3.92354 5.01393C3.79387 4.88869 3.6202 4.8194 3.43994 4.82096C3.25967 4.82253 3.08724 4.89483 2.95977 5.0223C2.8323 5.14977 2.75999 5.32221 2.75843 5.50247C2.75686 5.68274 2.82616 5.85641 2.95139 5.98607L4.32642 7.3611C4.45534 7.48998 4.63018 7.56239 4.81249 7.56239C4.99479 7.56239 5.16963 7.48998 5.29856 7.3611L8.04861 4.61105Z" fill="#00A5E9"/>
</svg>
