<svg width="15" height="15" viewBox="0 0 15 15" fill="none" xmlns="http://www.w3.org/2000/svg">
<g clip-path="url(#clip0_4100_9)">
<path d="M11.071 1.64954H3.68635C2.41185 1.64954 1.37866 2.68273 1.37866 3.95723V11.3418C1.37866 12.6163 2.41185 13.6495 3.68635 13.6495H11.071C12.3455 13.6495 13.3787 12.6163 13.3787 11.3418V3.95723C13.3787 2.68273 12.3455 1.64954 11.071 1.64954Z" stroke="#99A8B2" stroke-linejoin="round"/>
<path d="M7.5 -1.875L11.3971 4.45312H3.60289L7.5 -1.875Z" fill="white"/>
<path d="M7.06699 9.46131V9.9375H7.933V9.46131H7.06699ZM7.5 -0.0625L5 4.6994H10L7.5 -0.0625ZM7.933 9.46131V4.22321H7.06699V9.46131H7.933Z" fill="#99A8B2"/>
</g>
<defs>
<clipPath id="clip0_4100_9">
<rect width="15" height="15" fill="white"/>
</clipPath>
</defs>
</svg>
